<svg xmlns="http://www.w3.org/2000/svg" width="1005" height="600"><rect width="1005" height="600" x="0" y="0" fill="#FFFFFF" id="backgorund"/><g id="viz"><clipPath id="serieClipPath"><rect x="-50" y="-20" width="805" height="600"/></clipPath><g transform="translate(0,0)"><g transform="translate(50,20)" clip-path="url(#serieClipPath)"><g id="axis"><g transform="translate(0,560)" fill="none" font-size="10" font-family="sans-serif" text-anchor="middle"><path class="domain" stroke="currentColor" d="M0.5,6V0.5H735.5V6"/><g class="tick" opacity="1" transform="translate(0.5,0)"><line stroke="currentColor" y2="6"/><text fill="currentColor" y="9" dy="0.71em">Jan 03</text></g><g class="tick" opacity="1" transform="translate(57.03846153846154,0)"><line stroke="currentColor" y2="6"/><text fill="currentColor" y="9" dy="0.71em">Jan 10</text></g><g class="tick" opacity="1" transform="translate(113.57692307692308,0)"><line stroke="currentColor" y2="6"/><text fill="currentColor" y="9" dy="0.71em">Jan 17</text></g><g class="tick" opacity="1" transform="translate(170.1153846153846,0)"><line stroke="currentColor" y2="6"/><text fill="currentColor" y="9" dy="0.71em">Jan 24</text></g><g class="tick" opacity="1" transform="translate(226.65384615384616,0)"><line stroke="currentColor" y2="6"/><text fill="currentColor" y="9" dy="0.71em">Jan 31</text></g><g class="tick" opacity="1" transform="translate(283.19230769230774,0)"><line stroke="currentColor" y2="6"/><text fill="currentColor" y="9" dy="0.71em">Feb 07</text></g><g class="tick" opacity="1" transform="translate(339.7307692307692,0)"><line stroke="currentColor" y2="6"/><text fill="currentColor" y="9" dy="0.71em">Feb 14</text></g><g class="tick" opacity="1" transform="translate(396.2692307692308,0)"><line stroke="currentColor" y2="6"/><text fill="currentColor" y="9" dy="0.71em">Feb 21</text></g><g class="tick" opacity="1" transform="translate(452.8076923076923,0)"><line stroke="currentColor" y2="6"/><text fill="currentColor" y="9" dy="0.71em">Feb 28</text></g><g class="tick" opacity="1" transform="translate(509.3461538461538,0)"><line stroke="currentColor" y2="6"/><text fill="currentColor" y="9" dy="0.71em">Mar 06</text></g><g class="tick" opacity="1" transform="translate(565.8846153846155,0)"><line stroke="currentColor" y2="6"/><text fill="currentColor" y="9" dy="0.71em">Mar 13</text></g><g class="tick" opacity="1" transform="translate(622.4230769230769,0)"><line stroke="currentColor" y2="6"/><text fill="currentColor" y="9" dy="0.71em">Mar 20</text></g><g class="tick" opacity="1" transform="translate(678.9615384615385,0)"><line stroke="currentColor" y2="6"/><text fill="currentColor" y="9" dy="0.71em">Mar 27</text></g><g class="tick" opacity="1" transform="translate(735.5,0)"><line stroke="currentColor" y2="6"/><text fill="currentColor" y="9" dy="0.71em">Apr 03</text></g><text x="735" dy="-5" text-anchor="end" style="font-family: Arial, sans-serif; font-size: 12px; fill: rgb(123, 123, 123); font-weight: bold;">日期</text></g><g transform="translate(0,0)" fill="none" font-size="10" font-family="sans-serif" text-anchor="end"><path class="domain" stroke="currentColor" d="M0.5,560.5V0.5"/><g class="tick" opacity="1" transform="translate(0,560.5)"><line stroke="currentColor" x2="-6"/><text fill="currentColor" x="-9" dy="0.32em">440</text></g><g class="tick" opacity="1" transform="translate(0,509.59090909090907)"><line stroke="currentColor" x2="-6"/><text fill="currentColor" x="-9" dy="0.32em">450</text></g><g class="tick" opacity="1" transform="translate(0,458.68181818181813)"><line stroke="currentColor" x2="-6"/><text fill="currentColor" x="-9" dy="0.32em">460</text></g><g class="tick" opacity="1" transform="translate(0,407.7727272727273)"><line stroke="currentColor" x2="-6"/><text fill="currentColor" x="-9" dy="0.32em">470</text></g><g class="tick" opacity="1" transform="translate(0,356.8636363636364)"><line stroke="currentColor" x2="-6"/><text fill="currentColor" x="-9" dy="0.32em">480</text></g><g class="tick" opacity="1" transform="translate(0,305.95454545454544)"><line stroke="currentColor" x2="-6"/><text fill="currentColor" x="-9" dy="0.32em">490</text></g><g class="tick" opacity="1" transform="translate(0,255.04545454545456)"><line stroke="currentColor" x2="-6"/><text fill="currentColor" x="-9" dy="0.32em">500</text></g><g class="tick" opacity="1" transform="translate(0,204.13636363636365)"><line stroke="currentColor" x2="-6"/><text fill="currentColor" x="-9" dy="0.32em">510</text></g><g class="tick" opacity="1" transform="translate(0,153.22727272727272)"><line stroke="currentColor" x2="-6"/><text fill="currentColor" x="-9" dy="0.32em">520</text></g><g class="tick" opacity="1" transform="translate(0,102.31818181818178)"><line stroke="currentColor" x2="-6"/><text fill="currentColor" x="-9" dy="0.32em">530</text></g><g class="tick" opacity="1" transform="translate(0,51.40909090909093)"><line stroke="currentColor" x2="-6"/><text fill="currentColor" x="-9" dy="0.32em">540</text></g><g class="tick" opacity="1" transform="translate(0,0.5)"><line stroke="currentColor" x2="-6"/><text fill="currentColor" x="-9" dy="0.32em">550</text></g><text x="4" text-anchor="start" dominant-baseline="hanging" style="font-family: Arial, sans-serif; font-size: 12px; fill: rgb(123, 123, 123); font-weight: bold;">收盤價</text></g></g><g id="viz"><g><path d="M0,493.8181818181818C4.038461538461539,493.8181818181818,4.038461538461539,511.6363636363636,8.076923076923078,511.6363636363636C12.115384615384617,511.6363636363636,12.115384615384617,465.8181818181818,16.153846153846157,465.8181818181818C20.192307692307693,465.8181818181818,20.192307692307693,465.8181818181818,24.23076923076923,465.8181818181818C36.34615384615385,465.8181818181818,36.34615384615385,351.27272727272725,48.46153846153846,351.27272727272725C52.5,351.27272727272725,52.5,325.8181818181818,56.53846153846154,325.8181818181818C60.57692307692308,325.8181818181818,60.57692307692308,333.45454545454544,64.61538461538463,333.45454545454544C68.65384615384616,333.45454545454544,68.65384615384616,323.27272727272725,72.6923076923077,323.27272727272725C76.73076923076923,323.27272727272725,76.73076923076923,254.54545454545456,80.76923076923077,254.54545454545456C92.88461538461539,254.54545454545456,92.88461538461539,229.09090909090907,105,229.09090909090907C109.03846153846155,229.09090909090907,109.03846153846155,239.27272727272725,113.07692307692308,239.27272727272725C165.57692307692307,239.27272727272725,165.57692307692307,35.63636363636362,218.07692307692307,35.63636363636362C222.1153846153846,35.63636363636362,222.1153846153846,142.54545454545453,226.15384615384616,142.54545454545453C230.19230769230768,142.54545454545453,230.19230769230768,101.81818181818178,234.23076923076923,101.81818181818178C238.26923076923077,101.81818181818178,238.26923076923077,50.90909090909093,242.3076923076923,50.90909090909093C246.34615384615384,50.90909090909093,246.34615384615384,40.72727272727274,250.3846153846154,40.72727272727274C262.5,40.72727272727274,262.5,122.18181818181816,274.61538461538464,122.18181818181816C278.6538461538462,122.18181818181816,278.6538461538462,137.45454545454547,282.69230769230774,137.45454545454547C286.7307692307693,137.45454545454547,286.7307692307693,50.90909090909093,290.7692307692308,50.90909090909093C294.8076923076923,50.90909090909093,294.8076923076923,50.90909090909093,298.84615384615387,50.90909090909093C302.8846153846154,50.90909090909093,302.8846153846154,25.454545454545432,306.92307692307696,25.454545454545432C319.03846153846155,25.454545454545432,319.03846153846155,45.8181818181818,331.1538461538462,45.8181818181818C335.19230769230774,45.8181818181818,335.19230769230774,25.454545454545432,339.2307692307692,25.454545454545432C343.2692307692308,25.454545454545432,343.2692307692308,127.27272727272728,347.3076923076923,127.27272727272728C351.34615384615387,127.27272727272728,351.34615384615387,111.99999999999997,355.3846153846154,111.99999999999997C359.4230769230769,111.99999999999997,359.4230769230769,162.9090909090909,363.46153846153845,162.9090909090909C375.5769230769231,162.9090909090909,375.5769230769231,168.00000000000003,387.6923076923077,168.00000000000003C391.7307692307692,168.00000000000003,391.7307692307692,173.0909090909091,395.7692307692308,173.0909090909091C399.8076923076923,173.0909090909091,399.8076923076923,218.90909090909088,403.84615384615387,218.90909090909088C407.88461538461536,218.90909090909088,407.88461538461536,162.9090909090909,411.9230769230769,162.9090909090909C415.96153846153845,162.9090909090909,415.96153846153845,198.5454545454545,420,198.5454545454545C464.4230769230769,198.5454545454545,464.4230769230769,147.63636363636365,508.8461538461538,147.63636363636365C512.8846153846155,147.63636363636365,512.8846153846155,132.36363636363635,516.923076923077,132.36363636363635C520.9615384615386,132.36363636363635,520.9615384615386,147.63636363636365,525,147.63636363636365C529.0384615384615,147.63636363636365,529.0384615384615,142.54545454545453,533.0769230769231,142.54545454545453C537.1153846153846,142.54545454545453,537.1153846153846,188.36363636363635,541.1538461538462,188.36363636363635C553.2692307692308,188.36363636363635,553.2692307692308,173.0909090909091,565.3846153846155,173.0909090909091C569.4230769230769,173.0909090909091,569.4230769230769,203.63636363636365,573.4615384615385,203.63636363636365C577.5,203.63636363636365,577.5,198.5454545454545,581.5384615384615,198.5454545454545C585.5769230769231,198.5454545454545,585.5769230769231,229.09090909090907,589.6153846153846,229.09090909090907C593.6538461538462,229.09090909090907,593.6538461538462,162.9090909090909,597.6923076923077,162.9090909090909C609.8076923076924,162.9090909090909,609.8076923076924,193.45454545454547,621.9230769230769,193.45454545454547C625.9615384615385,193.45454545454547,625.9615384615385,168.00000000000003,630,168.00000000000003C634.0384615384615,168.00000000000003,634.0384615384615,86.54545454545455,638.0769230769231,86.54545454545455C642.1153846153846,86.54545454545455,642.1153846153846,61.09090909090911,646.1538461538462,61.09090909090911C650.1923076923076,61.09090909090911,650.1923076923076,55.999999999999986,654.2307692307692,55.999999999999986C666.3461538461538,55.999999999999986,666.3461538461538,96.72727272727273,678.4615384615385,96.72727272727273C682.5,96.72727272727273,682.5,127.27272727272728,686.5384615384615,127.27272727272728C690.5769230769231,127.27272727272728,690.5769230769231,101.81818181818178,694.6153846153846,101.81818181818178C698.6538461538462,101.81818181818178,698.6538461538462,76.36363636363636,702.6923076923077,76.36363636363636C706.7307692307693,76.36363636363636,706.7307692307693,86.54545454545455,710.7692307692308,86.54545454545455" stroke="#1f77b4" fill="none"/><text font-family="sans-serif" font-size="10" class="labels" x="306.92307692307696" y="25.454545454545432" dx="0" dy="-4" text-anchor="middle"/></g></g></g><text y="4" x="4" style="font-family: Arial, sans-serif; font-size: 12px; fill: black; font-weight: bold; dominant-baseline: hanging;"/></g><g id="grid"><rect x="0" y="0" width="805" height="600" fill="none" stroke="#ccc"/></g></g><g id="legend" transform="translate(805,20)"><g transform="translate(5,0)"/></g></svg>